<svg width="16" height="16" viewBox="0 0 16 16" fill="none" xmlns="http://www.w3.org/2000/svg">
<g clip-path="url(#clip0_420_732)">
<path d="M3.33341 9.33333C3.7016 9.33333 4.00008 9.03486 4.00008 8.66667C4.00008 8.29848 3.7016 8 3.33341 8C2.96522 8 2.66675 8.29848 2.66675 8.66667C2.66675 9.03486 2.96522 9.33333 3.33341 9.33333Z" fill="#737373"/>
<path d="M0.666667 6.66671C1.03486 6.66671 1.33333 6.36823 1.33333 6.00004C1.33333 5.63185 1.03486 5.33337 0.666667 5.33337C0.298477 5.33337 0 5.63185 0 6.00004C0 6.36823 0.298477 6.66671 0.666667 6.66671Z" fill="#737373"/>
<path d="M3.33341 3.99996C3.7016 3.99996 4.00008 3.70148 4.00008 3.33329C4.00008 2.9651 3.7016 2.66663 3.33341 2.66663C2.96522 2.66663 2.66675 2.9651 2.66675 3.33329C2.66675 3.70148 2.96522 3.99996 3.33341 3.99996Z" fill="#737373"/>
<path d="M0.666667 1.33333C1.03486 1.33333 1.33333 1.03486 1.33333 0.666667C1.33333 0.298477 1.03486 0 0.666667 0C0.298477 0 0 0.298477 0 0.666667C0 1.03486 0.298477 1.33333 0.666667 1.33333Z" fill="#737373"/>
<path d="M15.3334 9.33333C15.7016 9.33333 16.0001 9.03486 16.0001 8.66667C16.0001 8.29848 15.7016 8 15.3334 8C14.9652 8 14.6667 8.29848 14.6667 8.66667C14.6667 9.03486 14.9652 9.33333 15.3334 9.33333Z" fill="#737373"/>
<path d="M12.6667 6.66671C13.0349 6.66671 13.3333 6.36823 13.3333 6.00004C13.3333 5.63185 13.0349 5.33337 12.6667 5.33337C12.2985 5.33337 12 5.63185 12 6.00004C12 6.36823 12.2985 6.66671 12.6667 6.66671Z" fill="#737373"/>
<path d="M15.3334 3.99996C15.7016 3.99996 16.0001 3.70148 16.0001 3.33329C16.0001 2.9651 15.7016 2.66663 15.3334 2.66663C14.9652 2.66663 14.6667 2.9651 14.6667 3.33329C14.6667 3.70148 14.9652 3.99996 15.3334 3.99996Z" fill="#737373"/>
<path d="M12.6667 1.33333C13.0349 1.33333 13.3333 1.03486 13.3333 0.666667C13.3333 0.298477 13.0349 0 12.6667 0C12.2985 0 12 0.298477 12 0.666667C12 1.03486 12.2985 1.33333 12.6667 1.33333Z" fill="#737373"/>
<path d="M9.33341 16C9.7016 16 10.0001 15.7015 10.0001 15.3333C10.0001 14.9651 9.7016 14.6666 9.33341 14.6666C8.96522 14.6666 8.66675 14.9651 8.66675 15.3333C8.66675 15.7015 8.96522 16 9.33341 16Z" fill="#737373"/>
<path d="M6.66667 13.3333C7.03486 13.3333 7.33333 13.0349 7.33333 12.6667C7.33333 12.2985 7.03486 12 6.66667 12C6.29848 12 6 12.2985 6 12.6667C6 13.0349 6.29848 13.3333 6.66667 13.3333Z" fill="#737373"/>
<path d="M9.33341 10.6667C9.7016 10.6667 10.0001 10.3682 10.0001 10C10.0001 9.63185 9.7016 9.33337 9.33341 9.33337C8.96522 9.33337 8.66675 9.63185 8.66675 10C8.66675 10.3682 8.96522 10.6667 9.33341 10.6667Z" fill="#737373"/>
<path d="M6.66667 7.99996C7.03486 7.99996 7.33333 7.70148 7.33333 7.33329C7.33333 6.9651 7.03486 6.66663 6.66667 6.66663C6.29848 6.66663 6 6.9651 6 7.33329C6 7.70148 6.29848 7.99996 6.66667 7.99996Z" fill="#737373"/>
<path d="M9.99992 2C9.6463 2 9.30716 1.85952 9.05711 1.60948C8.80706 1.35943 8.66659 1.02029 8.66659 0.666667C8.66659 0.489856 8.59635 0.320286 8.47132 0.195262C8.3463 0.0702379 8.17673 0 7.99992 0C7.82311 0 7.65354 0.0702379 7.52851 0.195262C7.40349 0.320286 7.33325 0.489856 7.33325 0.666667C7.33325 1.02029 7.19278 1.35943 6.94273 1.60948C6.69268 1.85952 6.35354 2 5.99992 2C5.82311 2 5.65354 2.07024 5.52851 2.19526C5.40349 2.32029 5.33325 2.48986 5.33325 2.66667C5.33325 2.84348 5.40349 3.01305 5.52851 3.13807C5.65354 3.2631 5.82311 3.33333 5.99992 3.33333C6.35354 3.33333 6.69268 3.47381 6.94273 3.72386C7.19278 3.97391 7.33325 4.31305 7.33325 4.66667C7.33325 4.84348 7.40349 5.01305 7.52851 5.13807C7.65354 5.2631 7.82311 5.33333 7.99992 5.33333C8.17673 5.33333 8.3463 5.2631 8.47132 5.13807C8.59635 5.01305 8.66659 4.84348 8.66659 4.66667C8.66659 4.31305 8.80706 3.97391 9.05711 3.72386C9.30716 3.47381 9.6463 3.33333 9.99992 3.33333C10.1767 3.33333 10.3463 3.2631 10.4713 3.13807C10.5963 3.01305 10.6666 2.84348 10.6666 2.66667C10.6666 2.48986 10.5963 2.32029 10.4713 2.19526C10.3463 2.07024 10.1767 2 9.99992 2Z" fill="#737373"/>
<path d="M4.66667 12.6666C4.31305 12.6666 3.97391 12.5261 3.72386 12.2761C3.47381 12.0261 3.33333 11.6869 3.33333 11.3333C3.33333 11.1565 3.2631 10.9869 3.13807 10.8619C3.01305 10.7369 2.84348 10.6666 2.66667 10.6666C2.48986 10.6666 2.32029 10.7369 2.19526 10.8619C2.07024 10.9869 2 11.1565 2 11.3333C2 11.6869 1.85952 12.0261 1.60948 12.2761C1.35943 12.5261 1.02029 12.6666 0.666667 12.6666C0.489856 12.6666 0.320286 12.7369 0.195262 12.8619C0.0702379 12.9869 0 13.1565 0 13.3333C0 13.5101 0.0702379 13.6797 0.195262 13.8047C0.320286 13.9297 0.489856 14 0.666667 14C1.02029 14 1.35943 14.1404 1.60948 14.3905C1.85952 14.6405 2 14.9797 2 15.3333C2 15.5101 2.07024 15.6797 2.19526 15.8047C2.32029 15.9297 2.48986 16 2.66667 16C2.84348 16 3.01305 15.9297 3.13807 15.8047C3.2631 15.6797 3.33333 15.5101 3.33333 15.3333C3.33333 14.9797 3.47381 14.6405 3.72386 14.3905C3.97391 14.1404 4.31305 14 4.66667 14C4.84348 14 5.01305 13.9297 5.13807 13.8047C5.2631 13.6797 5.33333 13.5101 5.33333 13.3333C5.33333 13.1565 5.2631 12.9869 5.13807 12.8619C5.01305 12.7369 4.84348 12.6666 4.66667 12.6666Z" fill="#737373"/>
<path d="M15.3334 12.6666C14.9798 12.6666 14.6407 12.5261 14.3906 12.2761C14.1406 12.0261 14.0001 11.6869 14.0001 11.3333C14.0001 11.1565 13.9298 10.9869 13.8048 10.8619C13.6798 10.7369 13.5102 10.6666 13.3334 10.6666C13.1566 10.6666 12.987 10.7369 12.862 10.8619C12.737 10.9869 12.6667 11.1565 12.6667 11.3333C12.6667 11.6869 12.5263 12.0261 12.2762 12.2761C12.0262 12.5261 11.687 12.6666 11.3334 12.6666C11.1566 12.6666 10.987 12.7369 10.862 12.8619C10.737 12.9869 10.6667 13.1565 10.6667 13.3333C10.6667 13.5101 10.737 13.6797 10.862 13.8047C10.987 13.9297 11.1566 14 11.3334 14C11.687 14 12.0262 14.1404 12.2762 14.3905C12.5263 14.6405 12.6667 14.9797 12.6667 15.3333C12.6667 15.5101 12.737 15.6797 12.862 15.8047C12.987 15.9297 13.1566 16 13.3334 16C13.5102 16 13.6798 15.9297 13.8048 15.8047C13.9298 15.6797 14.0001 15.5101 14.0001 15.3333C14.0001 14.9797 14.1406 14.6405 14.3906 14.3905C14.6407 14.1404 14.9798 14 15.3334 14C15.5102 14 15.6798 13.9297 15.8048 13.8047C15.9298 13.6797 16.0001 13.5101 16.0001 13.3333C16.0001 13.1565 15.9298 12.9869 15.8048 12.8619C15.6798 12.7369 15.5102 12.6666 15.3334 12.6666Z" fill="#737373"/>
</g>
<defs>
<clipPath id="clip0_420_732">
<rect width="16" height="16" fill="white"/>
</clipPath>
</defs>
</svg>
