<svg width="15" height="16" viewBox="0 0 15 16" fill="none" xmlns="http://www.w3.org/2000/svg">
<path d="M14.3333 8C14.3333 8.17681 14.263 8.34638 14.138 8.47141C14.013 8.59643 13.8434 8.66667 13.6666 8.66667H11.7533C11.4088 8.66555 11.0703 8.57594 10.7704 8.40644C10.4705 8.23693 10.2192 7.99322 10.0406 7.69867L9.12859 6.18467L8.13725 8.6C8.10407 8.68103 8.05526 8.75472 7.99359 8.81688C7.93193 8.87904 7.85863 8.92845 7.77787 8.96228C7.69712 8.99611 7.61049 9.01371 7.52293 9.01406C7.43538 9.01441 7.34861 8.99751 7.26759 8.96433C7.18656 8.93115 7.11286 8.88234 7.0507 8.82068C6.98854 8.75901 6.93914 8.68571 6.9053 8.60496C6.87147 8.5242 6.85388 8.43757 6.85353 8.35002C6.85318 8.26246 6.87007 8.17569 6.90325 8.09467L8.03659 5.33333H6.74392L5.36792 8.688C5.30834 8.83297 5.30175 8.9943 5.3493 9.14365C5.39684 9.293 5.49549 9.42082 5.62792 9.50467L8.68925 11.438C8.78416 11.4979 8.8624 11.5809 8.91671 11.6791C8.97102 11.7774 8.99964 11.8877 8.99992 12V15.3333C8.99992 15.5101 8.92968 15.6797 8.80466 15.8047C8.67963 15.9298 8.51006 16 8.33325 16C8.15644 16 7.98687 15.9298 7.86185 15.8047C7.73682 15.6797 7.66659 15.5101 7.66659 15.3333V12.3673L4.91592 10.634C4.51772 10.3828 4.22091 9.99916 4.07774 9.55063C3.93457 9.10211 3.95423 8.61746 4.13325 8.182L5.30259 5.33333H3.82392C3.70012 5.33288 3.57866 5.36711 3.47332 5.43215C3.36798 5.49719 3.28297 5.59044 3.22792 5.70133L2.26325 7.63133C2.22412 7.70969 2.16993 7.77957 2.10379 7.83698C2.03765 7.8944 1.96085 7.93823 1.87777 7.96596C1.7947 7.99369 1.70697 8.00479 1.6196 7.99862C1.53224 7.99245 1.44694 7.96914 1.36859 7.93C1.29023 7.89087 1.22035 7.83668 1.16293 7.77054C1.10552 7.7044 1.06169 7.6276 1.03396 7.54452C1.00623 7.46145 0.995128 7.37372 1.0013 7.28635C1.00747 7.19899 1.03078 7.11369 1.06992 7.03533L2.03525 5.102C2.20086 4.7697 2.45615 4.49038 2.77225 4.29563C3.08835 4.10088 3.45264 3.99847 3.82392 4H8.23925C8.58401 4.00103 8.92273 4.09065 9.22288 4.26028C9.52302 4.42991 9.77453 4.67384 9.95325 4.96867L11.1826 7.01067C11.2421 7.10879 11.3259 7.18998 11.4258 7.24648C11.5257 7.30297 11.6385 7.33288 11.7533 7.33333H13.6666C13.8434 7.33333 14.013 7.40357 14.138 7.5286C14.263 7.65362 14.3333 7.82319 14.3333 8ZM4.24992 11.2093C4.16863 11.1768 4.08173 11.1606 3.99418 11.1617C3.90663 11.1627 3.82015 11.181 3.73967 11.2155C3.65919 11.25 3.5863 11.3 3.52514 11.3626C3.46399 11.4253 3.41577 11.4994 3.38325 11.5807C3.33425 11.7048 3.24891 11.8112 3.1384 11.8861C3.02789 11.9609 2.89737 12.0006 2.76392 12H0.999919C0.823108 12 0.653538 12.0702 0.528514 12.1953C0.40349 12.3203 0.333252 12.4899 0.333252 12.6667C0.333252 12.8435 0.40349 13.013 0.528514 13.1381C0.653538 13.2631 0.823108 13.3333 0.999919 13.3333H2.76392C3.16398 13.3346 3.55515 13.2153 3.88644 12.991C4.21773 12.7668 4.47379 12.4479 4.62125 12.076C4.65378 11.9947 4.66998 11.9078 4.66892 11.8203C4.66787 11.7327 4.64958 11.6462 4.61509 11.5658C4.58061 11.4853 4.53061 11.4124 4.46796 11.3512C4.4053 11.2901 4.33121 11.2419 4.24992 11.2093ZM8.99992 3.33333C9.32955 3.33333 9.65179 3.23559 9.92587 3.05245C10.2 2.86931 10.4136 2.60902 10.5397 2.30447C10.6659 1.99993 10.6989 1.66482 10.6346 1.34152C10.5703 1.01822 10.4115 0.721244 10.1784 0.488156C9.94534 0.255069 9.64837 0.096334 9.32507 0.0320253C9.00177 -0.0322834 8.66666 0.00072214 8.36211 0.126868C8.05757 0.253014 7.79727 0.466635 7.61414 0.740717C7.431 1.0148 7.33325 1.33703 7.33325 1.66667C7.33325 2.1087 7.50885 2.53262 7.82141 2.84518C8.13397 3.15774 8.55789 3.33333 8.99992 3.33333Z" fill="#737373"/>
</svg>
