<svg width="16" height="16" viewBox="0 0 16 16" fill="none" xmlns="http://www.w3.org/2000/svg">
<g clip-path="url(#clip0_420_724)">
<path d="M14.4661 5.19197C14.1114 5.00731 13.7194 4.97397 13.3467 5.05464C13.4154 4.58064 13.4854 4.22264 13.5574 3.83397C13.7327 2.88064 13.1001 1.96264 12.1461 1.78664C11.9094 1.74397 11.6754 1.75131 11.4541 1.80064C11.2627 1.30131 10.8527 0.891974 10.3007 0.735307C9.84875 0.605974 9.37541 0.660641 8.96541 0.887974C8.67608 1.04864 8.44408 1.28131 8.28608 1.56264C8.13408 1.47664 7.96874 1.41264 7.79341 1.37464C7.33541 1.27397 6.86608 1.35797 6.47008 1.61131C6.07408 1.86464 5.80074 2.25664 5.69941 2.71531C5.66741 2.86131 5.63474 3.03264 5.60341 3.22731C5.54474 3.59064 5.79141 3.93331 6.15541 3.99197C6.52008 4.04931 6.86141 3.80331 6.92008 3.43997C6.94741 3.27264 6.97541 3.12531 7.00208 3.00064C7.04675 2.77864 7.28608 2.62197 7.50741 2.67664C7.73608 2.72664 7.88141 2.95331 7.83075 3.18197C7.76475 3.48331 7.93274 3.79997 8.21074 3.93397C8.59008 4.12931 9.09008 3.87531 9.15541 3.45331C9.28341 2.75397 9.40541 2.32597 9.41075 2.30731C9.46875 2.08664 9.71608 1.94931 9.93408 2.01664C10.1587 2.08064 10.2901 2.31597 10.2267 2.53931C10.2254 2.54464 10.0794 3.06464 9.94208 3.89064C9.88141 4.25397 10.1267 4.59731 10.4901 4.65731C10.8454 4.71864 11.1987 4.47397 11.2567 4.10931C11.3041 3.84797 11.3221 3.65197 11.4101 3.43864C11.4527 3.20864 11.6767 3.05797 11.9041 3.09797C12.1341 3.13997 12.2867 3.36197 12.2447 3.59197C12.1107 4.31731 11.9574 5.10064 11.8987 6.16064C11.7114 6.38997 11.5074 6.66264 11.3094 6.98064C11.1147 7.29331 11.2094 7.70397 11.5221 7.89931C11.8341 8.09331 12.2454 7.99864 12.4401 7.68664C12.9261 6.90797 13.4707 6.41931 13.4707 6.41931C13.5814 6.32264 13.7194 6.30664 13.8481 6.37464C13.9574 6.43197 14.0174 6.55597 14.0047 6.63131C14.0001 6.64997 13.4941 8.48131 11.8827 9.79264C11.6747 9.82864 11.2421 9.89264 10.6501 9.94197C10.5874 8.46997 10.4321 7.32064 10.2994 6.71664C10.1987 6.25797 9.92541 5.86597 9.52941 5.61197C9.13408 5.35931 8.66408 5.27464 8.20675 5.37531C8.02941 5.41397 7.86674 5.48597 7.71341 5.57331C7.55608 5.28864 7.32541 5.05064 7.03475 4.88864C6.62541 4.66131 6.15074 4.60731 5.70074 4.73531C5.14808 4.89264 4.73808 5.30131 4.54608 5.80064C4.32474 5.75197 4.09008 5.74464 3.85274 5.78797C2.89941 5.96331 2.26741 6.88131 2.44274 7.83464C2.51408 8.21931 2.58274 8.57464 2.65074 9.04197C2.28008 8.96331 1.88674 9.00864 1.53341 9.19331C0.906745 9.51997 0.561411 10.2333 0.704078 10.9706C0.729411 11.0673 1.34341 13.344 3.42408 14.946C3.50341 15.0073 3.59474 15.0493 3.69208 15.0706C3.73341 15.0793 4.71141 15.2833 6.33208 15.3346C8.11941 15.3346 9.02341 15.136 9.06141 15.1273C9.24208 15.0866 9.39674 14.974 9.49075 14.814C10.0961 13.7806 10.5047 12.78 10.6254 11.282C11.6621 11.202 12.2781 11.0753 12.3054 11.0693C12.4027 11.0486 12.4947 11.006 12.5741 10.9446C14.6547 9.34264 15.2687 7.06597 15.3041 6.92597C15.4387 6.22131 15.1014 5.52464 14.4647 5.19197H14.4661ZM8.49408 13.872C8.13141 13.924 7.41675 14 6.35541 14.0006C5.22608 13.964 4.42941 13.846 4.11741 13.792C2.51808 12.4906 2.00874 10.678 2.00608 10.676C1.98341 10.5553 2.04274 10.4313 2.15274 10.3753C2.28074 10.3073 2.41941 10.3233 2.52474 10.4146C2.53008 10.42 3.07474 10.9086 3.56074 11.6873C3.75541 12 4.16741 12.0946 4.47874 11.9C4.79141 11.7046 4.88608 11.294 4.69141 10.9813C4.49341 10.664 4.28941 10.3913 4.10208 10.1613C4.04274 9.10064 3.89008 8.31864 3.75608 7.59331C3.71008 7.36997 3.87141 7.13531 4.09541 7.09931C4.32474 7.05864 4.54808 7.20931 4.59074 7.43997C4.76408 7.96797 4.81474 8.55797 4.90674 9.38264C4.93941 9.74997 5.25941 10.02 5.63008 9.98731C5.99674 9.95464 6.26741 9.63064 6.23475 9.26397C6.09141 7.66064 5.77808 6.55131 5.77541 6.54197C5.71141 6.31731 5.84274 6.08197 6.06874 6.01731C6.28474 5.94997 6.53341 6.08797 6.59074 6.30797C6.60541 6.36064 6.95808 7.61064 7.09741 9.38731C7.12474 9.75531 7.45208 10.0293 7.81408 9.99997C8.18141 9.97131 8.45541 9.65064 8.42675 9.28331C8.37408 8.44731 8.23274 7.80064 8.17074 7.18264C8.11808 6.95997 8.27141 6.72197 8.49541 6.67731C8.71541 6.62397 8.95608 6.77997 9.00008 7.00131C9.13074 7.59664 9.28675 8.78597 9.33475 10.34C9.33408 11.966 9.03941 12.884 8.49408 13.872Z" fill="#737373"/>
</g>
<defs>
<clipPath id="clip0_420_724">
<rect width="16" height="16" fill="white"/>
</clipPath>
</defs>
</svg>
