<svg width="16" height="16" viewBox="0 0 16 16" fill="none" xmlns="http://www.w3.org/2000/svg">
<g clip-path="url(#clip0_432_1162)">
<path d="M4.66675 7.33333C4.66675 9.17133 6.16208 10.6667 8.00008 10.6667C9.83808 10.6667 11.3334 9.17133 11.3334 7.33333C11.3334 6.96533 11.6321 6.66667 12.0001 6.66667C12.3681 6.66667 12.6667 6.96533 12.6667 7.33333C12.6667 9.90667 10.5734 12 8.00008 12C5.42675 12 3.33341 9.90667 3.33341 7.33333C3.33341 4.76 5.42675 2.66667 8.00008 2.66667C8.36808 2.66667 8.66675 2.96533 8.66675 3.33333C8.66675 3.70133 8.36808 4 8.00008 4C6.16208 4 4.66675 5.49533 4.66675 7.33333ZM8.00008 8C7.63208 8 7.33341 7.70133 7.33341 7.33333C7.33341 7.14933 7.40808 6.98267 7.52875 6.862L8.85008 5.54067C8.10875 5.20667 7.17675 5.328 6.58542 5.91933C6.20808 6.29667 6.00008 6.79933 6.00008 7.33333C6.00008 7.86733 6.20808 8.37 6.58542 8.74733C6.96275 9.12467 7.46541 9.33333 8.00008 9.33333C8.53475 9.33333 9.03675 9.12533 9.41408 8.748C9.79142 8.37067 10.0001 7.868 10.0001 7.33333C10.0001 7.03067 9.92675 6.74133 9.80008 6.476L8.47208 7.804C8.35142 7.92467 8.18475 7.99933 8.00075 7.99933L8.00008 8ZM8.85008 5.54067C9.05608 5.63333 9.25008 5.75467 9.41408 5.91867C9.57808 6.08267 9.70275 6.27267 9.79942 6.47533L10.9421 5.33267H12.6661C12.8427 5.33267 13.0127 5.26267 13.1374 5.13733L14.4707 3.804C14.6614 3.61333 14.7187 3.32667 14.6154 3.07733C14.5121 2.828 14.2687 2.666 13.9994 2.666H12.6661V1.33333C12.6661 1.064 12.5034 0.820667 12.2547 0.717333C12.0047 0.614 11.7187 0.670667 11.5281 0.862L10.1947 2.19533C10.0694 2.32067 9.99941 2.49 9.99941 2.66667V4.39067L8.85008 5.54067ZM12.8634 12.8067C14.3747 11.4627 15.3334 9.51 15.3334 7.33333C15.3334 7.086 15.3214 6.842 15.2974 6.60067C15.2607 6.23467 14.9361 5.96667 14.5681 6.00333C14.2021 6.04 13.9341 6.366 13.9707 6.73267C13.9901 6.93 14.0001 7.13067 14.0001 7.33333C14.0001 10.6413 11.3081 13.3333 8.00008 13.3333C4.69208 13.3333 2.00008 10.6413 2.00008 7.33333C2.00008 4.02533 4.69208 1.33333 8.00008 1.33333C8.20275 1.33333 8.40275 1.34333 8.60075 1.36267C8.97141 1.4 9.29408 1.13133 9.33008 0.765333C9.36675 0.398667 9.09875 0.072 8.73275 0.036C8.49141 0.012 8.24675 0 8.00008 0C3.95675 0 0.666748 3.29 0.666748 7.33333C0.666748 9.51 1.62541 11.4627 3.13675 12.8067L1.76941 14.978C1.57341 15.2893 1.66675 15.7007 1.97808 15.8973C2.28475 16.092 2.70008 16.0027 2.89741 15.6887L4.21208 13.6007C5.31941 14.2727 6.61275 14.6667 8.00008 14.6667C9.38742 14.6667 10.6807 14.2727 11.7881 13.6007L13.1027 15.6887C13.3001 16.0027 13.7154 16.092 14.0221 15.8973C14.3334 15.7013 14.4274 15.2893 14.2307 14.978L12.8634 12.8067Z" fill="#737373"/>
</g>
<defs>
<clipPath id="clip0_432_1162">
<rect width="16" height="16" fill="white"/>
</clipPath>
</defs>
</svg>
