<svg width="16" height="16" viewBox="0 0 16 16" fill="none" xmlns="http://www.w3.org/2000/svg">
<g clip-path="url(#clip0_420_728)">
<path d="M14.6827 1.51865C14.2667 1.17206 13.7792 0.921892 13.2551 0.786108C12.7309 0.650323 12.1833 0.632295 11.6513 0.733316L9.46267 1.19198C8.91884 1.28926 8.41258 1.53524 8 1.90265C7.59606 1.53795 7.09863 1.29281 6.56334 1.19465L4.32267 0.727983C3.79444 0.631928 3.25157 0.653047 2.7324 0.789848C2.21323 0.926648 1.73044 1.17579 1.31813 1.51968C0.905827 1.86356 0.574072 2.29379 0.346306 2.77997C0.11854 3.26616 0.000321825 3.79643 3.52991e-06 4.33332V10.8613C-0.00118513 11.7177 0.29786 12.5474 0.845122 13.2061C1.39238 13.8648 2.15324 14.3109 2.99534 14.4667L6.86667 15.2313C7.23927 15.2993 7.61726 15.3334 7.996 15.3333C8.38237 15.3331 8.76792 15.298 9.148 15.2287L12.9893 14.4667C13.8337 14.3131 14.5974 13.8683 15.1475 13.2096C15.6977 12.5509 15.9993 11.7202 16 10.862V4.33332C16.0005 3.79622 15.8828 3.26559 15.6551 2.77914C15.4274 2.29268 15.0954 1.86233 14.6827 1.51865ZM7 13.2193L3.36867 12.502C2.98459 12.4322 2.63719 12.2298 2.38707 11.9301C2.13694 11.6304 1.99996 11.2524 2 10.862V4.33332C2.00123 3.89236 2.17667 3.46975 2.4881 3.15757C2.79953 2.84539 3.22172 2.66893 3.66267 2.66665C3.75523 2.66647 3.84761 2.67473 3.93867 2.69132L6.17934 3.15798C6.40958 3.19995 6.6178 3.32135 6.76776 3.50102C6.91771 3.6807 6.9999 3.90728 7 4.14132V13.2193ZM14 10.862C13.9993 11.2547 13.8602 11.6346 13.6072 11.935C13.3543 12.2354 13.0035 12.4371 12.6167 12.5047L9 13.2193V4.14132C9.0014 3.9029 9.08731 3.67271 9.24246 3.49168C9.39761 3.31065 9.61194 3.19052 9.84734 3.15265L12.0353 2.69465C12.2754 2.65102 12.5221 2.66064 12.7581 2.72283C12.9941 2.78502 13.2135 2.89826 13.4009 3.05455C13.5883 3.21085 13.739 3.40638 13.8426 3.62734C13.9461 3.8483 13.9998 4.0893 14 4.33332V10.862Z" fill="#737373"/>
</g>
<defs>
<clipPath id="clip0_420_728">
<rect width="16" height="16" fill="white"/>
</clipPath>
</defs>
</svg>
