<svg width="16" height="16" viewBox="0 0 16 16" fill="none" xmlns="http://www.w3.org/2000/svg">
<g clip-path="url(#clip0_420_720)">
<path d="M15.3333 8C15.3333 8.17681 15.263 8.34638 15.138 8.47141C15.013 8.59643 14.8434 8.66667 14.6666 8.66667H12.7533C12.4088 8.66555 12.0703 8.57594 11.7704 8.40644C11.4705 8.23693 11.2192 7.99322 11.0406 7.69867L10.1286 6.18467L9.13725 8.6C9.10407 8.68103 9.05526 8.75472 8.99359 8.81688C8.93193 8.87904 8.85863 8.92845 8.77787 8.96228C8.69712 8.99611 8.61049 9.01371 8.52293 9.01406C8.43538 9.01441 8.34861 8.99751 8.26759 8.96433C8.18656 8.93115 8.11286 8.88234 8.0507 8.82068C7.98854 8.75901 7.93914 8.68571 7.9053 8.60496C7.87147 8.5242 7.85388 8.43757 7.85353 8.35002C7.85318 8.26246 7.87007 8.17569 7.90325 8.09467L9.03659 5.33333H7.74392L6.36792 8.688C6.30834 8.83297 6.30175 8.9943 6.3493 9.14365C6.39684 9.293 6.49549 9.42082 6.62792 9.50467L9.68925 11.438C9.78416 11.4979 9.8624 11.5809 9.91671 11.6791C9.97102 11.7774 9.99964 11.8877 9.99992 12V15.3333C9.99992 15.5101 9.92968 15.6797 9.80466 15.8047C9.67963 15.9298 9.51006 16 9.33325 16C9.15644 16 8.98687 15.9298 8.86185 15.8047C8.73682 15.6797 8.66659 15.5101 8.66659 15.3333V12.3673L5.91592 10.634C5.51772 10.3828 5.22091 9.99916 5.07774 9.55063C4.93457 9.10211 4.95423 8.61746 5.13325 8.182L6.30259 5.33333H4.82392C4.70012 5.33288 4.57866 5.36711 4.47332 5.43215C4.36798 5.49719 4.28297 5.59044 4.22792 5.70133L3.26325 7.63133C3.22412 7.70969 3.16993 7.77957 3.10379 7.83698C3.03765 7.8944 2.96085 7.93823 2.87777 7.96596C2.7947 7.99369 2.70697 8.00479 2.6196 7.99862C2.53224 7.99245 2.44694 7.96914 2.36859 7.93C2.29023 7.89087 2.22035 7.83668 2.16293 7.77054C2.10552 7.7044 2.06169 7.6276 2.03396 7.54452C2.00623 7.46145 1.99513 7.37372 2.0013 7.28635C2.00747 7.19899 2.03078 7.11369 2.06992 7.03533L3.03525 5.102C3.20086 4.7697 3.45615 4.49038 3.77225 4.29563C4.08835 4.10088 4.45264 3.99847 4.82392 4H9.23925C9.58401 4.00103 9.92273 4.09065 10.2229 4.26028C10.523 4.42991 10.7745 4.67384 10.9533 4.96867L12.1826 7.01067C12.2421 7.10879 12.3259 7.18998 12.4258 7.24648C12.5257 7.30297 12.6385 7.33288 12.7533 7.33333H14.6666C14.8434 7.33333 15.013 7.40357 15.138 7.5286C15.263 7.65362 15.3333 7.82319 15.3333 8ZM5.24992 11.2093C5.16863 11.1768 5.08173 11.1606 4.99418 11.1617C4.90663 11.1627 4.82015 11.181 4.73967 11.2155C4.65919 11.25 4.5863 11.3 4.52514 11.3626C4.46399 11.4253 4.41577 11.4994 4.38325 11.5807C4.33425 11.7048 4.24891 11.8112 4.1384 11.8861C4.02789 11.9609 3.89737 12.0006 3.76392 12H1.99992C1.82311 12 1.65354 12.0702 1.52851 12.1953C1.40349 12.3203 1.33325 12.4899 1.33325 12.6667C1.33325 12.8435 1.40349 13.013 1.52851 13.1381C1.65354 13.2631 1.82311 13.3333 1.99992 13.3333H3.76392C4.16398 13.3346 4.55515 13.2153 4.88644 12.991C5.21773 12.7668 5.47379 12.4479 5.62125 12.076C5.65378 11.9947 5.66998 11.9078 5.66892 11.8203C5.66787 11.7327 5.64958 11.6462 5.61509 11.5658C5.58061 11.4853 5.53061 11.4124 5.46796 11.3512C5.4053 11.2901 5.33121 11.2419 5.24992 11.2093ZM9.99992 3.33333C10.3296 3.33333 10.6518 3.23559 10.9259 3.05245C11.2 2.86931 11.4136 2.60902 11.5397 2.30447C11.6659 1.99993 11.6989 1.66482 11.6346 1.34152C11.5703 1.01822 11.4115 0.721244 11.1784 0.488156C10.9453 0.255069 10.6484 0.096334 10.3251 0.0320253C10.0018 -0.0322834 9.66666 0.00072214 9.36211 0.126868C9.05757 0.253014 8.79727 0.466635 8.61414 0.740717C8.431 1.0148 8.33325 1.33703 8.33325 1.66667C8.33325 2.1087 8.50885 2.53262 8.82141 2.84518C9.13397 3.15774 9.55789 3.33333 9.99992 3.33333Z" fill="#737373"/>
</g>
<defs>
<clipPath id="clip0_420_720">
<rect width="16" height="16" fill="white"/>
</clipPath>
</defs>
</svg>
