<svg width="60" height="71" viewBox="0 0 60 71" fill="none" xmlns="http://www.w3.org/2000/svg">
<g clip-path="url(#clip0_221_913)">
<path d="M29.9999 1.45679C28.0826 2.47835 26.3947 3.99361 25.0536 5.86672C23.66 5.01821 22.0802 4.53627 20.4041 4.53627C14.7924 4.53627 10.2433 9.90608 10.2433 16.5301H8.54213C3.82441 16.53 0 21.0444 0 26.6132C0 32.1821 3.82441 36.6965 8.54213 36.6965H29.9999V1.45679Z" fill="#C4EAFF"/>
<path d="M51.4577 16.5301H49.7564C49.7564 7.40076 43.4869 0 35.7529 0C33.7266 0 31.8013 0.508637 30.0628 1.42286L26.3893 36.6966H51.4579C56.1756 36.6966 60 32.1822 60 26.6133C59.9999 21.0445 56.1755 16.5301 51.4577 16.5301Z" fill="#9BD6FF"/>
<path d="M30.0628 22.321L26.3893 46.5729L30.0628 70.8247H37.1107V46.9867H44.8167L30.0628 22.321Z" fill="#FF8E00"/>
<path d="M29.9999 70.8247V22.2161L15.1831 46.9867H22.8891V70.8247H29.9999Z" fill="#FFBA00"/>
</g>
<defs>
<clipPath id="clip0_221_913">
<rect width="60" height="70.8247" fill="white"/>
</clipPath>
</defs>
</svg>
