<svg width="8" height="8" viewBox="0 0 8 8" fill="none" xmlns="http://www.w3.org/2000/svg">
<g clip-path="url(#clip0_420_682)">
<path d="M6.16667 0.666667H6V0.5C6 0.223667 5.776 0 5.5 0C5.224 0 5 0.223667 5 0.5V0.666667H3V0.5C3 0.223667 2.776 0 2.5 0C2.224 0 2 0.223667 2 0.5V0.666667H1.83333C0.822667 0.666667 0 1.489 0 2.5V6.16667C0 7.17767 0.822667 8 1.83333 8H6.16667C7.17733 8 8 7.17767 8 6.16667V2.5C8 1.489 7.17733 0.666667 6.16667 0.666667ZM6.16667 7H1.83333C1.37367 7 1 6.626 1 6.16667V3H7V6.16667C7 6.626 6.62633 7 6.16667 7ZM3.33333 4.16667V4.83333C3.33333 5.10933 3.10933 5.33333 2.83333 5.33333H2.16667C1.89067 5.33333 1.66667 5.10933 1.66667 4.83333V4.16667C1.66667 3.89067 1.89067 3.66667 2.16667 3.66667H2.83333C3.10933 3.66667 3.33333 3.89067 3.33333 4.16667Z" fill="#404040"/>
</g>
<defs>
<clipPath id="clip0_420_682">
<rect width="8" height="8" fill="white"/>
</clipPath>
</defs>
</svg>
