<svg width="10" height="10" viewBox="0 0 10 10" fill="none" xmlns="http://www.w3.org/2000/svg">
<g clip-path="url(#clip0_420_686)">
<path d="M4.72383 6.56204C4.80258 6.63163 4.90133 6.66663 5.00008 6.66663C5.09883 6.66663 5.19758 6.63163 5.27633 6.56204C5.50383 6.36038 7.50008 4.54496 7.50008 2.91663C7.50008 1.18788 6.72883 0.416626 5.00008 0.416626C3.27133 0.416626 2.50008 1.18788 2.50008 2.91663C2.50008 4.54496 4.49633 6.36038 4.72383 6.56204ZM5.00008 1.24996C6.26175 1.24996 6.66675 1.65496 6.66675 2.91663C6.66675 3.82913 5.63466 5.04621 5.00008 5.67704C4.3655 5.04621 3.33341 3.82913 3.33341 2.91663C3.33341 1.65496 3.73841 1.24996 5.00008 1.24996ZM9.583 6.66371C9.583 6.77871 9.5355 6.88913 9.45133 6.96746C9.41675 7.00038 8.58383 7.77621 7.52883 8.40829C6.48091 9.03621 5.203 9.52913 5.14925 9.54996C5.053 9.58663 4.94675 9.58663 4.8505 9.54996C4.79675 9.52913 3.51883 9.03621 2.47091 8.40829C1.41591 7.77621 0.583415 7.00038 0.548415 6.96746C0.464248 6.88913 0.416748 6.77871 0.416748 6.66371C0.416748 6.54871 0.464665 6.43829 0.548415 6.35996C0.571748 6.33788 1.12966 5.81788 1.90841 5.28163C2.09883 5.15163 2.35758 5.19996 2.488 5.38871C2.61841 5.57829 2.5705 5.83788 2.38091 5.96871C2.01175 6.22246 1.69216 6.47621 1.46716 6.66413C1.79216 6.93538 2.31383 7.34329 2.89966 7.69454C3.68341 8.16413 4.63758 8.56663 5.0005 8.71329C5.363 8.56621 6.31716 8.16413 7.10133 7.69454C7.68716 7.34329 8.20842 6.93579 8.53383 6.66413C8.32091 6.48621 8.02341 6.24996 7.67966 6.00996C7.49091 5.87829 7.44466 5.61871 7.57633 5.42954C7.708 5.24121 7.96758 5.19538 8.15633 5.32621C8.90216 5.84704 9.43008 6.33954 9.45216 6.35954C9.53633 6.43829 9.58383 6.54871 9.58383 6.66371H9.583ZM5.00008 3.74996C4.40466 3.74996 4.16675 3.51204 4.16675 2.91663C4.16675 2.32121 4.40466 2.08329 5.00008 2.08329C5.5955 2.08329 5.83341 2.32121 5.83341 2.91663C5.83341 3.51204 5.5955 3.74996 5.00008 3.74996Z" fill="#404040"/>
</g>
<defs>
<clipPath id="clip0_420_686">
<rect width="10" height="10" fill="white"/>
</clipPath>
</defs>
</svg>
