<svg width="25" height="24" viewBox="0 0 25 24" fill="none" xmlns="http://www.w3.org/2000/svg">
<path fill-rule="evenodd" clip-rule="evenodd" d="M13.9198 16.5017C13.7502 16.6712 13.5202 16.7664 13.2805 16.7664C13.0407 16.7664 12.8108 16.6712 12.6412 16.5017L7.52605 11.3865C7.43968 11.3031 7.3708 11.2033 7.32341 11.093C7.27602 10.9827 7.25108 10.864 7.25003 10.744C7.24899 10.6239 7.27187 10.5049 7.31733 10.3937C7.3628 10.2826 7.42994 10.1816 7.51484 10.0967C7.59974 10.0118 7.7007 9.94471 7.81182 9.89924C7.92294 9.85378 8.04201 9.8309 8.16207 9.83194C8.28213 9.83299 8.40078 9.85793 8.5111 9.90532C8.62142 9.95271 8.7212 10.0216 8.80461 10.108L13.2805 14.5838L17.7563 10.108C17.9269 9.94325 18.1553 9.85211 18.3924 9.85417C18.6294 9.85623 18.8562 9.95132 19.0239 10.119C19.1915 10.2866 19.2866 10.5134 19.2887 10.7505C19.2908 10.9876 19.1996 11.216 19.0349 11.3865L13.9198 16.5017Z" fill="#171717"/>
</svg>
