<svg width="22" height="23" viewBox="0 0 22 23" fill="none" xmlns="http://www.w3.org/2000/svg">
<path d="M14.284 13.3556H13.5804L13.331 13.1151C13.8877 12.4684 14.2945 11.7067 14.5223 10.8845C14.7502 10.0623 14.7936 9.19985 14.6492 8.35892C14.2306 5.88287 12.1643 3.90559 9.67039 3.60276C8.79363 3.49184 7.90311 3.58296 7.06699 3.86915C6.23086 4.15534 5.47128 4.629 4.84638 5.25391C4.22147 5.87881 3.74781 6.63839 3.46162 7.47451C3.17543 8.31064 3.08431 9.20115 3.19523 10.0779C3.49806 12.5718 5.47534 14.6381 7.9514 15.0567C8.79232 15.2011 9.65476 15.1577 10.477 14.9299C11.2992 14.702 12.0609 14.2952 12.7076 13.7385L12.948 13.9879V14.6916L16.7334 18.4769C17.0986 18.8421 17.6953 18.8421 18.0605 18.4769C18.4257 18.1117 18.4257 17.515 18.0605 17.1498L14.284 13.3556ZM8.94004 13.3556C6.72227 13.3556 4.93203 11.5653 4.93203 9.34756C4.93203 7.1298 6.72227 5.33956 8.94004 5.33956C11.1578 5.33956 12.948 7.1298 12.948 9.34756C12.948 11.5653 11.1578 13.3556 8.94004 13.3556Z" fill="#171717"/>
</svg>
