<svg width="25" height="24" viewBox="0 0 25 24" fill="none" xmlns="http://www.w3.org/2000/svg">
<path d="M11.7461 16.1001C11.9608 16.2824 12.2301 16.3741 12.4994 16.3741C12.7687 16.3741 13.038 16.2824 13.2528 16.1001C13.8732 15.5717 19.3173 10.8156 19.3173 6.54962C19.3173 2.02056 17.214 0 12.4994 0C7.78487 0 5.68156 2.02056 5.68156 6.54962C5.68156 10.8156 11.1256 15.5717 11.7461 16.1001ZM12.4994 2.18321C15.9402 2.18321 17.0447 3.24425 17.0447 6.54962C17.0447 8.94024 14.23 12.1288 12.4994 13.7815C10.7688 12.1288 7.95418 8.94024 7.95418 6.54962C7.95418 3.24425 9.05868 2.18321 12.4994 2.18321ZM24.9977 16.3664C24.9977 16.6677 24.8682 16.957 24.6387 17.1622C24.5443 17.2484 22.2729 19.281 19.3957 20.937C16.5379 22.582 13.0528 23.8734 12.9062 23.928C12.6437 24.024 12.354 24.024 12.0915 23.928C11.9449 23.8734 8.45984 22.582 5.60202 20.937C2.72488 19.281 0.454525 17.2484 0.359075 17.1622C0.12954 16.957 0 16.6677 0 16.3664C0 16.0651 0.130676 15.7759 0.359075 15.5706C0.422708 15.5128 1.94423 14.1505 4.068 12.7456C4.58729 12.405 5.29294 12.5316 5.64861 13.0261C6.00427 13.5228 5.8736 14.2029 5.35658 14.5456C4.3498 15.2104 3.47825 15.8752 2.86464 16.3675C3.75097 17.0781 5.17363 18.1468 6.77128 19.067C8.90869 20.2973 11.5108 21.3518 12.5006 21.736C13.4892 21.3507 16.0913 20.2973 18.2299 19.067C19.8275 18.1468 21.249 17.0792 22.1365 16.3675C21.5558 15.9014 20.7445 15.2825 19.8071 14.6537C19.2923 14.3087 19.1662 13.6287 19.5252 13.1331C19.8843 12.6397 20.5922 12.5196 21.107 12.8624C23.141 14.2269 24.5807 15.5171 24.6409 15.5695C24.8705 15.7759 25 16.0651 25 16.3664H24.9977ZM12.4994 8.73283C10.8756 8.73283 10.2268 8.10952 10.2268 6.54962C10.2268 4.98972 10.8756 4.36642 12.4994 4.36642C14.1232 4.36642 14.7721 4.98972 14.7721 6.54962C14.7721 8.10952 14.1232 8.73283 12.4994 8.73283Z" fill="#404040"/>
</svg>
